<svg xmlns="http://www.w3.org/2000/svg" width="197.344" height="257.167" viewBox="0 0 197.344 257.167">
  <g id="Group_55" data-name="Group 55" transform="translate(0 0)">
    <g id="noun_helpful_968823_1_" data-name="noun_helpful_968823 (1)">
      <g id="Group_54" data-name="Group 54">
        <path id="Path_137" data-name="Path 137" d="M293.342,140.47c-2.122.329-3.189-.165-3.73-1.14a10.859,10.859,0,0,1-7.755,9.328A18.332,18.332,0,0,0,289.5,151.9c13.555,2.086,19.728,16.717,19.728,29.43,0,10.066-2.757,16.761-7.072,21.2,21.007-8.739,31.545-19.176,22.439-41.2C320.025,150.27,304.867,138.687,293.342,140.47Z" transform="translate(-130.545 11.739)" fill="#fff"/>
        <path id="Path_138" data-name="Path 138" d="M202.653,153.465c-1.368-.828-3.213-2.009-5.182-3.413-.858,2.265-1.431,4.323-1.008,5.1.047.085.3.153.5.184,6.53,1,11.345,4.927,14.584,10.141A20.16,20.16,0,0,0,202.653,153.465Z" transform="translate(-137.751 12.642)" fill="#fff"/>
        <path id="Path_139" data-name="Path 139" d="M171.482,157.616c4.445-1.082,12.488-8.738,19.02-14.984a10.746,10.746,0,0,1-.567-2.866q-.333-5.618-.493-10.986c-14.875.726-3.017,15.956-12.591,14.476-11.524-1.784-26.686,9.8-31.258,20.863-6.33,15.309-3.166,25.018,6.4,32.452a42.432,42.432,0,0,1-.873-8.928C151.123,176.285,160.205,160.359,171.482,157.616Z" transform="translate(-142.302 10.85)" fill="#fff"/>
        <path id="Path_140" data-name="Path 140" d="M247.055,189.892c0-11.358,9.081-27.284,20.361-30.026,2.228-.542,2.56-1.73,3.193-5.083.158-.839.333-1.743.571-2.686V76.78c2.393,4.911,4.824,12.659,6.247,24.44.24,1.984.455,4.062.633,6.281v0c.424,5.285.667,11.24.663,17.945,0,5.979-.189,12.547-.61,19.764a8.674,8.674,0,0,0,8.155,9.163c.173.011.343.015.515.015a8.676,8.676,0,0,0,8.65-8.17c.436-7.52.64-14.422.642-20.772,0-7.111-.256-13.524-.722-19.319,0-.009,0-.017,0-.026-.189-2.308-.42-4.494-.671-6.616-2.344-19.711-7.325-31.568-13.4-39.015a28.027,28.027,0,0,0-10.411-8.117,20.049,20.049,0,0,0-7.914-1.741,12.493,12.493,0,0,0-1.537.087.1.1,0,0,0-.017,0H222.3l-.015,0a12.006,12.006,0,0,0-1.531-.089,20.586,20.586,0,0,0-9.149,2.32c-5.832,2.892-12.12,9.216-16.518,20.427-4.271,10.8-7.192,26.228-7.435,49.149-.011.975-.023,1.942-.023,2.945,0,6.35.2,13.253.646,20.77a8.674,8.674,0,0,0,8.651,8.17c.171,0,.343-.007.515-.017a8.676,8.676,0,0,0,8.154-9.167c-.424-7.208-.616-13.778-.616-19.756-.007-4.655.111-8.942.324-12.9,1-18.362,4.134-29.473,7.228-35.805v97.524a37.649,37.649,0,0,1,4.886,18.87c0,8.247-1.849,14.233-4.886,18.57V239.5a13.406,13.406,0,0,0,26.811,0V141.622h5.026V239.5a13.406,13.406,0,0,0,26.811,0V217.844C257.687,216.1,247.055,209.822,247.055,189.892Z" transform="translate(-138.483 4.264)" fill="#fff"/>
        <ellipse id="Ellipse_23" data-name="Ellipse 23" cx="24.396" cy="24.396" rx="24.396" ry="24.396" transform="translate(78.978)" fill="#fff"/>
        <path id="Path_141" data-name="Path 141" d="M310.215,181.317c0-12.5-6.143-25.48-17.89-27.286a19.442,19.442,0,0,1-10.154-4.966c-.057,0-.114.009-.171.009-.209,0-.415-.007-.625-.02a10.828,10.828,0,0,1-10.143-9.536c-5.079,6.163-1.474,13.354-8.09,14.964-10.133,2.464-18.7,17.217-18.7,27.919,0,21.407,12.38,26.384,32.89,26.384S310.215,202.725,310.215,181.317Zm-4.7-1.084s3.433,13.373-7.59,19.879C302.083,191.888,306.42,182.763,305.518,180.233Zm-32.528-24.214s-16.264,9.758-22.047,26.382C249.5,162.525,272.991,156.019,272.991,156.019Z" transform="translate(-133.697 11.755)" fill="#fff"/>
        <path id="Path_142" data-name="Path 142" d="M200.325,158.034c-3.586-.552-2.675-4.574-.756-9.31a10.836,10.836,0,0,1-8.96-5.248c-6.845,6.541-14.589,13.822-19.469,15.009-10.133,2.465-18.7,17.217-18.7,27.92,0,21.407,12.38,26.384,32.89,26.384s32.888-6.061,32.888-27.468C218.215,172.821,212.072,159.841,200.325,158.034Zm-20.059,2.711S164,170.5,158.221,187.129C156.775,167.25,180.267,160.745,180.267,160.745Zm-18.536,40.6s15.761,8.5,29.443,5.461C179.833,217.128,161.73,201.345,161.73,201.345Zm44.561-.12c4.155-8.223,8.492-17.348,7.59-19.879C213.881,181.346,217.313,194.719,206.291,201.224Z" transform="translate(-141.449 12.088)" fill="#fff"/>
      </g>
    </g>
  </g>
</svg>
