<svg xmlns="http://www.w3.org/2000/svg" width="306.512" height="216.373" viewBox="0 0 306.512 216.373">
  <g id="Group_49" data-name="Group 49" transform="translate(0 0)">
    <path id="Path_104" data-name="Path 104" d="M0,0S6.606.054,6.7,1.331c.8,10.712-10.23,83.736,0,96.208s35-17.775,64.868-21.508a118.324,118.324,0,0,1,54.582,6.577s31.915,20.513,31.22,38.007-3.085,23.441-10.823,25.435-88.021,0-88.021,0-33.164.472-38.58,4.509-9.893,30.03,5.561,42,102.806-6.528,115.349,0,16.514,44.025,16.514,44.025" transform="translate(297.086 38.027) rotate(90)" fill="" stroke="" stroke-width="3"/>
    <g id="Group_48" data-name="Group 48" transform="translate(0 0)">
      <g id="Group_46" data-name="Group 46" transform="translate(284.769 0)">
        <g id="noun_Map_Marker_36302" data-name="noun_Map Marker_36302" transform="translate(0)">
          <path id="Path_100" data-name="Path 100" d="M39.529,11.473A10.872,10.872,0,0,0,28.657,22.345c0,7.616,10.872,16.95,10.872,22.849,0-5.9,10.872-14.7,10.872-22.849A10.872,10.872,0,0,0,39.529,11.473Zm0,15.9a5.034,5.034,0,1,1,5.034-5.034A5.034,5.034,0,0,1,39.528,27.378Z" transform="translate(-28.657 -11.473)" fill=""/>
          <ellipse id="Ellipse_21" data-name="Ellipse 21" cx="2.341" cy="0.657" rx="2.341" ry="0.657" transform="translate(8.53 33.43)" fill=""/>
          <path id="Path_101" data-name="Path 101" d="M46.94,78.056c.513.3.811.639.811,1,0,1.239-3.428,2.245-7.659,2.248s-7.66-1-7.661-2.237c0-.366.305-.71.836-1.016-2.139.548-3.49,1.348-3.49,2.24,0,1.65,4.618,2.988,10.314,2.988S50.4,81.939,50.4,80.29C50.4,79.4,49.064,78.6,46.94,78.056Z" transform="translate(-29.218 -44.862)" fill=""/>
        </g>
      </g>
      <g id="noun_Running_27587" transform="translate(0 129.606)">
        <path id="Path_105" data-name="Path 105" d="M54.672,7.554A7.774,7.774,0,0,1,65.5,5.722c3.505,2.479,3.784,6.754,1.3,10.249s-6.791,4.909-10.287,2.421A7.772,7.772,0,0,1,54.672,7.554Z" transform="translate(-14.971 -4.289)" fill=""/>
        <path id="Path_106" data-name="Path 106" d="M83.7,24.325a4.081,4.081,0,0,0-4.6-3.594,4.018,4.018,0,0,0-2.565,1.5l-3.4,4.907-3.351,4.9s-4.752-4.611-6.233-5.811a37.73,37.73,0,0,0-4.83-3.274c-1.875-1.1-6.729-2.286-8.808-2.019l-1.348.2L35.308,23.049a5.9,5.9,0,0,0-4.007,2.9L25.533,36.135a4.62,4.62,0,0,0-.751,3.03A3.819,3.819,0,0,0,29.091,42.2a5.016,5.016,0,0,0,3.2-2.169l5.034-8.184L43.157,31,36.218,46.753c-3.86,6.787,2.079,11.083,4.193,13.195l.741.641L52.1,70.07,44.317,83.341a3.616,3.616,0,0,0-.56,2.094,4.683,4.683,0,0,0,4.612,4.747A4.884,4.884,0,0,0,52.7,87.525l2.018-3.534L61.3,72.457a7.752,7.752,0,0,0-.97-8.146L49.152,53.136l2.984-5.149,6.973-11.95L68.15,41.35a4.253,4.253,0,0,0,6.186-1.321l3.156-4.6,5.071-7.491a.317.317,0,0,0,.028-.048A5.627,5.627,0,0,0,83.7,24.325Z" transform="translate(-13.261 -5.271)" fill=""/>
        <path id="Path_107" data-name="Path 107" d="M38.515,64.838l-.74-.644a25.489,25.489,0,0,1-4.1-4.475c-.051-.079-9.5,15.743-9.5,15.743L13.658,86.694a3.622,3.622,0,0,0-1.008,1.92A4.682,4.682,0,0,0,16.1,94.26a4.887,4.887,0,0,0,4.808-1.638l2.747-3,8.962-9.8c2.323-2.838,6.854-9.186,9.033-12.263Z" transform="translate(-12.529 -7.615)" fill=""/>
      </g>
    </g>
  </g>
</svg>
