<svg xmlns="http://www.w3.org/2000/svg" width="366.008" height="170.808" viewBox="0 0 366.008 170.808">
  <g id="Group_51" data-name="Group 51" transform="translate(0 0)" opacity="0.9">
    <g id="Group_50" data-name="Group 50" transform="translate(0 0)">
      <path id="Path_112" data-name="Path 112" d="M39.129,46c2.526,22.858,11.066,64.3,29.891,71.873V78.709L41.764,46Z" transform="translate(199.384 39.405)" fill="#3d6fdb"/>
      <path id="Path_113" data-name="Path 113" d="M73.256,46H72.213c-2.037,19.728-10.7,77.973-42.183,84.714v.689h85.4v-.689C83.956,123.973,75.288,65.728,73.256,46Z" transform="translate(152.977 39.405)" fill="#3d6fdb"/>
      <path id="Path_114" data-name="Path 114" d="M57.286,46,30.03,78.709v39.127C48.721,110.1,57.4,68.107,59.909,46.006L57.286,46Z" transform="translate(152.977 39.405)" fill="#3d6fdb"/>
      <path id="Path_115" data-name="Path 115" d="M359.944,160.106a6.1,6.1,0,0,0-6.1,6.1v9.675l-44.489-44.489L234.364,56.4l13.988-13.988a6.1,6.1,0,1,0-8.626-8.626L225.738,47.776,211.751,33.789a6.1,6.1,0,1,0-8.626,8.626l7.888,7.888H155.061l7.888-7.888a6.1,6.1,0,0,0-8.626-8.626L140.335,47.776,126.347,33.789a6.1,6.1,0,1,0-8.626,8.626L131.71,56.4s-74.984,74.99-74.99,74.99L12.23,175.881v-9.675a6.1,6.1,0,1,0-12.2,0v24.4a6.248,6.248,0,0,0,4.417,5.856c2.6.756,4.856-.4,6.655-2.2l1.69-1.69,5.844-5.844q4.017-4.017,8.034-8.04,4.465-4.456,8.925-8.925l8.5-8.5q3.386-3.386,6.765-6.765l3.727-3.727.348-.348v46.276a6.1,6.1,0,0,0,6.1,6.1h109.8v-54.9a6.093,6.093,0,0,1,1.415-3.9l30.5-36.6a6.1,6.1,0,0,1,4.685-2.2h36.6a6.118,6.118,0,0,1,4.691,2.2l30.5,36.6a6.121,6.121,0,0,1,1.409,3.9v54.9h24.4a6.1,6.1,0,0,0,6.1-6.1V150.431c.4.4.793.793,1.19,1.183l3.227,3.227q2.388,2.388,4.77,4.77,2.91,2.91,5.826,5.826l6.381,6.381q3.23,3.221,6.448,6.448,3.01,3.011,6.015,6.021,2.553,2.544,5.094,5.094l3.678,3.678c.592.592,1.171,1.184,1.769,1.769a6.3,6.3,0,0,0,6.546,1.482,6.232,6.232,0,0,0,3.953-5.7v-24.4A6.093,6.093,0,0,0,359.944,160.106ZM143.91,129.6H75.764l67.1-67.1h68.146Zm-76.778,12.2h73.2v48.8h-73.2v-48.8Z" transform="translate(-0.03 -32)" fill="#3d6fdb"/>
    </g>
  </g>
</svg>
