<svg xmlns="http://www.w3.org/2000/svg" width="216.364" height="197.574" viewBox="0 0 216.364 197.574">
  <g id="noun_help_1781169" transform="translate(0 0)">
    <g id="Group_56" data-name="Group 56" transform="translate(0 0)">
      <path id="Path_143" data-name="Path 143" d="M116.128,115.027C80.476,96.955,68.5,67.682,45.478,88.124a.637.637,0,0,1-1.1-.409c-.041-5.029-.2-17.867-.245-23.223a.978.978,0,0,1,1.431-.859c2.9,1.676,9.731,6.419,14.6,7.686a12.5,12.5,0,0,0,10.794-2.29c4.375-3.434,10.916-8.872,16.272-13.369a9.8,9.8,0,0,1-4.988-4.947,10.165,10.165,0,0,1-.123-8.177,5.846,5.846,0,0,1,.613-1.1c-4.661,3.68-11.325,9.036-14.719,11.734a4.3,4.3,0,0,1-4.661.45S40.409,37.222,38,34.769a21.85,21.85,0,0,0-14.433-6.337C11.012,27.86.75,38.94.75,51.491v53.968c0,9.813,5.07,19.216,13.778,23.714,6.378,3.271,12.715,3.6,17.867,1.513a18.6,18.6,0,0,0,5.07-2.985h.041c.736-.777,1.513-1.431,2.249-2.208,30.173-31.482,42.439-2.739,68.319,5.847,4.824,1.595,10.058.368,12.184-4.293l.082-.2A9.037,9.037,0,0,0,116.128,115.027Z" transform="translate(-0.75 57.951)" fill="#3d6fdb"/>
      <ellipse id="Ellipse_24" data-name="Ellipse 24" cx="17.376" cy="17.376" rx="17.376" ry="17.376" transform="translate(4.272 45.906)" fill="#3d6fdb"/>
      <path id="Path_144" data-name="Path 144" d="M156.924,106.141c-.475-16.756-3.875-35.79-7.41-52.546-3.439-16.3-15.758-38.827-29.936-38.827h-7.355C99.941,16.8,92.883,23.051,89.168,27.925L62.183,60.949a8.051,8.051,0,0,1-3.88,2.327L29.253,74.422A6,6,0,0,0,32.7,85.9l36.514-11a14.4,14.4,0,0,0,6.129-3.332L86.759,62.2a.863.863,0,0,1,1.46.45c5.078,14.962,7.775,30.633,7.889,43.488h3.505l9.154,60.237a8.756,8.756,0,0,0,8.542,6.83h.008a8.756,8.756,0,0,0,8.751-9.045l-1.916-58.022h.149l13.287,60.2a8.756,8.756,0,0,0,17.3-2.152l-1.758-58.046h3.792Z" transform="translate(59.439 24.365)" fill="#3d6fdb"/>
      <ellipse id="Ellipse_25" data-name="Ellipse 25" cx="17.721" cy="17.721" rx="17.721" ry="17.721" transform="translate(147.595)" fill="#3d6fdb"/>
    </g>
  </g>
</svg>
