<svg xmlns="http://www.w3.org/2000/svg" width="197.427" height="200.3" viewBox="0 0 197.427 200.3">
  <g id="noun_safe_2643871" transform="translate(0 0)" opacity="0.9">
    <path id="Path_116" data-name="Path 116" d="M392.6,111.358H376.17v17.986L392.6,141.308Z" transform="translate(-212.122 -89.848)" fill=""/>
    <path id="Path_117" data-name="Path 117" d="M213.4,323.443a50.761,50.761,0,1,0-45.63-28.527A50.759,50.759,0,0,0,213.4,323.443ZM178.32,265.774a3.262,3.262,0,0,1,4.6.362L200.652,286.9,244.3,251.394a3.262,3.262,0,0,1,4.118,5.061L202.3,293.973a3.262,3.262,0,0,1-4.54-.412l-19.8-23.188A3.262,3.262,0,0,1,178.32,265.774Z" transform="translate(-114.684 -140.299)" fill=""/>
    <path id="Path_118" data-name="Path 118" d="M99.524,146.924V272.094h147.25V146.924a3.262,3.262,0,0,1,3.262-3.262h21.826L173.149,71.794,74.436,143.662H96.262A3.262,3.262,0,0,1,99.524,146.924Zm28.515,21.946a57.288,57.288,0,1,1-12.174,35.309,57.288,57.288,0,0,1,12.174-35.309Z" transform="translate(-74.436 -71.794)" fill=""/>
  </g>
</svg>
