<svg xmlns="http://www.w3.org/2000/svg" width="62.666" height="63.13" viewBox="0 0 62.666 63.13">
  <g id="network" transform="translate(0 0)">
    <path id="Path_190" data-name="Path 190" d="M61.153,27.512a5.306,5.306,0,0,0-7.325,0,5.155,5.155,0,0,0-1.128,1.7H47.632a16.327,16.327,0,0,0-3.467-8.269l3.99-4.1a5.124,5.124,0,0,0,1.917.378,5.2,5.2,0,1,0-4.734-3.1L41.371,18.2a16.327,16.327,0,0,0-8.081-3.324V9.811a5.181,5.181,0,0,0,1.7-8.459,5.3,5.3,0,0,0-7.325,0,5.179,5.179,0,0,0,1.706,8.459v5.065a16.327,16.327,0,0,0-8.081,3.33l-3.968-4.088a5.216,5.216,0,1,0-2.815,2.724L18.5,20.955a16.327,16.327,0,0,0-3.467,8.269H9.964a5.116,5.116,0,0,0-1.13-1.706,5.3,5.3,0,0,0-7.323,0,5.174,5.174,0,1,0,8.451,5.615h5.067a16.313,16.313,0,0,0,3.424,8.21L14.487,45.5a5.2,5.2,0,1,0,2.824,2.715L21.228,44.1a16.333,16.333,0,0,0,8.144,3.373v5.6a4.943,4.943,0,0,0-1.7,1.1,5.179,5.179,0,1,0,7.321,0,4.961,4.961,0,0,0-1.7-1.1v-5.6A16.339,16.339,0,0,0,41.431,44.1l3.917,4.113a5.128,5.128,0,0,0-.45,2.094A5.208,5.208,0,1,0,48.175,45.5l-3.962-4.154a16.329,16.329,0,0,0,3.424-8.212h5.069a5.177,5.177,0,1,0,8.451-5.621Zm-24.99,15.2a27.522,27.522,0,0,0,1.208-5.161h4.7a12.568,12.568,0,0,1-5.909,5.161ZM20.586,37.55h4.7A27.35,27.35,0,0,0,26.5,42.709a12.564,12.564,0,0,1-5.909-5.159ZM26.5,19.637a27.391,27.391,0,0,0-1.21,5.163h-4.7A12.578,12.578,0,0,1,26.5,19.637ZM42.078,24.8h-4.7a27.6,27.6,0,0,0-1.21-5.165A12.582,12.582,0,0,1,42.078,24.8ZM33.91,31.173c0,.868-.027,1.68-.069,2.46H28.82c-.041-.783-.069-1.592-.069-2.46s.027-1.679.069-2.456h5.022c.035.774.069,1.59.069,2.456Zm-.5,6.377a13.06,13.06,0,0,1-2.084,6.042,13.06,13.06,0,0,1-2.084-6.036ZM29.247,24.8a13.083,13.083,0,0,1,2.084-6.04,13.1,13.1,0,0,1,2.086,6.04ZM24.9,28.717c-.049.866-.069,1.694-.069,2.456s.02,1.592.069,2.46H19.064a12.365,12.365,0,0,1,0-4.916Zm12.856,4.916c.049-.868.069-1.7.069-2.46s-.02-1.59-.069-2.456H43.6a12.414,12.414,0,0,1,0,4.916ZM50.073,10.782a1.261,1.261,0,0,1,0,2.523,1.246,1.246,0,0,1-.856-.347h0c-.01,0-.024-.012-.033-.022a1.259,1.259,0,0,1,.9-2.145ZM30.438,4.123a1.261,1.261,0,1,1,1.784,1.782,1.3,1.3,0,0,1-1.786,0,1.263,1.263,0,0,1,0-1.78ZM11.324,12.041a1.261,1.261,0,1,1,.369.894A1.261,1.261,0,0,1,11.324,12.041ZM6.065,32.066a1.3,1.3,0,0,1-1.784,0,1.265,1.265,0,0,1,.9-2.154,1.25,1.25,0,0,1,.889.362,1.267,1.267,0,0,1,0,1.792Zm6.522,19.5a1.261,1.261,0,1,1,1.259-1.259,1.261,1.261,0,0,1-1.259,1.259Zm19.635,7.159a1.3,1.3,0,0,1-1.78,0,1.263,1.263,0,0,1,.887-2.154h0a1.259,1.259,0,0,1,.889,2.154ZM51.336,50.3a1.261,1.261,0,1,1-2.154-.891h.012a1.25,1.25,0,0,1,.877-.362,1.265,1.265,0,0,1,1.265,1.257Zm7.051-18.24a1.3,1.3,0,0,1-1.782,0,1.263,1.263,0,1,1,1.782,0Z" transform="translate(-0.007 0.116)" fill="#3d6fdb"/>
  </g>
</svg>
