<svg xmlns="http://www.w3.org/2000/svg" width="56.297" height="56.333" viewBox="0 0 56.297 56.333">
  <g id="phone" transform="translate(0 0)">
    <g id="Group_92" data-name="Group 92">
      <path id="Path_186" data-name="Path 186" d="M17.378,9.256a1.878,1.878,0,1,1,0-3.756A18.809,18.809,0,0,1,36.156,24.278a1.878,1.878,0,1,1-3.756,0A15.042,15.042,0,0,0,17.378,9.256Z" transform="translate(11.692 2.95)" fill="#3d6fdb"/>
      <path id="Path_187" data-name="Path 187" d="M17.878,10a9.392,9.392,0,0,1,9.389,9.389,1.878,1.878,0,0,1-3.756,0,5.65,5.65,0,0,0-5.633-5.633,1.878,1.878,0,0,1,0-3.756Z" transform="translate(12.131 6.9)" fill="#3d6fdb"/>
      <path id="Path_188" data-name="Path 188" d="M15,2.878A1.883,1.883,0,0,1,16.878,1,28.2,28.2,0,0,1,45.044,29.167a1.878,1.878,0,1,1-3.756,0A24.434,24.434,0,0,0,16.878,4.756,1.883,1.883,0,0,1,15,2.878Z" transform="translate(11.253 -1)" fill="#3d6fdb"/>
      <path id="Path_189" data-name="Path 189" d="M56.208,43.4a3.785,3.785,0,0,1,0,5.352l-6.516,6.516a7.7,7.7,0,0,1-5.6,2.047c-6.816,0-16.618-5.9-26.927-16.186C1.058,25-1.533,13.169,3.03,8.606L9.546,2.09a3.88,3.88,0,0,1,5.352,0l6.741,6.741a3.763,3.763,0,0,1-.019,5.352L17.282,18.54C17.733,23.8,22.953,29,26.127,32.172s8.375,8.394,13.633,8.844l4.356-4.356a3.862,3.862,0,0,1,5.352.019Z" transform="translate(-1.019 -0.982)" fill="#3d6fdb"/>
    </g>
  </g>
</svg>
